<?xml version="1.0" encoding="UTF-8" standalone="no"?>
<!-- This is a Stata 14.2 generated SVG file (http://www.stata.com) -->

<svg version="1.1" width="5.50in" height="4.00in" viewBox="0 0 3960 2880" xmlns="http://www.w3.org/2000/svg">
	<desc>Stata Graph - Graph</desc>
	<rect x="0.00" y="0.00" width="3959.88" height="2880.00" style="fill:#FFFFFF;stroke:#FFFFFF;stroke-width:5.76"/>
	<rect x="774.55" y="275.35" width="3084.47" height="2313.83" style="fill:#FFFFFF;stroke:#FFFFFF;stroke-width:5.76"/>
	<line x1="774.55" y1="885.46" x2="3859.02" y2="885.46" style="stroke:#E0E0E0;stroke-width:8.64"/>
	<line x1="774.55" y1="1979.07" x2="3859.02" y2="1979.07" style="stroke:#E0E0E0;stroke-width:8.64"/>
	<line x1="837.91" y1="2589.18" x2="837.91" y2="275.35" style="stroke:#E0E0E0;stroke-width:8.64"/>
	<line x1="1823.83" y1="2589.18" x2="1823.83" y2="275.35" style="stroke:#E0E0E0;stroke-width:8.64"/>
	<line x1="2809.74" y1="2589.18" x2="2809.74" y2="275.35" style="stroke:#E0E0E0;stroke-width:8.64"/>
	<line x1="3795.66" y1="2589.18" x2="3795.66" y2="275.35" style="stroke:#E0E0E0;stroke-width:8.64"/>
	<line x1="1823.83" y1="2589.18" x2="1823.83" y2="2531.63" style="stroke:#808080;stroke-width:8.64"/>
	<line x1="1823.83" y1="2502.80" x2="1823.83" y2="2445.25" style="stroke:#808080;stroke-width:8.64"/>
	<line x1="1823.83" y1="2416.42" x2="1823.83" y2="2358.87" style="stroke:#808080;stroke-width:8.64"/>
	<line x1="1823.83" y1="2330.04" x2="1823.83" y2="2272.49" style="stroke:#808080;stroke-width:8.64"/>
	<line x1="1823.83" y1="2243.66" x2="1823.83" y2="2186.11" style="stroke:#808080;stroke-width:8.64"/>
	<line x1="1823.83" y1="2157.28" x2="1823.83" y2="2099.73" style="stroke:#808080;stroke-width:8.64"/>
	<line x1="1823.83" y1="2070.90" x2="1823.83" y2="2013.23" style="stroke:#808080;stroke-width:8.64"/>
	<line x1="1823.83" y1="1984.52" x2="1823.83" y2="1926.85" style="stroke:#808080;stroke-width:8.64"/>
	<line x1="1823.83" y1="1898.01" x2="1823.83" y2="1840.47" style="stroke:#808080;stroke-width:8.64"/>
	<line x1="1823.83" y1="1811.63" x2="1823.83" y2="1754.09" style="stroke:#808080;stroke-width:8.64"/>
	<line x1="1823.83" y1="1725.25" x2="1823.83" y2="1667.71" style="stroke:#808080;stroke-width:8.64"/>
	<line x1="1823.83" y1="1638.87" x2="1823.83" y2="1581.33" style="stroke:#808080;stroke-width:8.64"/>
	<line x1="1823.83" y1="1552.49" x2="1823.83" y2="1494.95" style="stroke:#808080;stroke-width:8.64"/>
	<line x1="1823.83" y1="1466.11" x2="1823.83" y2="1408.57" style="stroke:#808080;stroke-width:8.64"/>
	<line x1="1823.83" y1="1379.73" x2="1823.83" y2="1322.19" style="stroke:#808080;stroke-width:8.64"/>
	<line x1="1823.83" y1="1293.35" x2="1823.83" y2="1235.81" style="stroke:#808080;stroke-width:8.64"/>
	<line x1="1823.83" y1="1206.97" x2="1823.83" y2="1149.43" style="stroke:#808080;stroke-width:8.64"/>
	<line x1="1823.83" y1="1120.59" x2="1823.83" y2="1062.92" style="stroke:#808080;stroke-width:8.64"/>
	<line x1="1823.83" y1="1034.21" x2="1823.83" y2="976.54" style="stroke:#808080;stroke-width:8.64"/>
	<line x1="1823.83" y1="947.71" x2="1823.83" y2="890.16" style="stroke:#808080;stroke-width:8.64"/>
	<line x1="1823.83" y1="861.33" x2="1823.83" y2="803.78" style="stroke:#808080;stroke-width:8.64"/>
	<line x1="1823.83" y1="774.95" x2="1823.83" y2="717.40" style="stroke:#808080;stroke-width:8.64"/>
	<line x1="1823.83" y1="688.57" x2="1823.83" y2="631.02" style="stroke:#808080;stroke-width:8.64"/>
	<line x1="1823.83" y1="602.19" x2="1823.83" y2="544.64" style="stroke:#808080;stroke-width:8.64"/>
	<line x1="1823.83" y1="515.81" x2="1823.83" y2="458.26" style="stroke:#808080;stroke-width:8.64"/>
	<line x1="1823.83" y1="429.43" x2="1823.83" y2="371.88" style="stroke:#808080;stroke-width:8.64"/>
	<line x1="1823.83" y1="343.05" x2="1823.83" y2="285.50" style="stroke:#808080;stroke-width:8.64"/>
	<line x1="1065.49" y1="885.46" x2="2469.31" y2="885.46" style="stroke:#6E8E84;stroke-width:8.64"/>
	<line x1="2469.31" y1="907.49" x2="2469.31" y2="863.43" stroke-linecap="round" style="stroke:#6E8E84;stroke-width:8.64"/>
	<line x1="1065.49" y1="907.49" x2="1065.49" y2="863.43" stroke-linecap="round" style="stroke:#6E8E84;stroke-width:8.64"/>
	<line x1="1788.56" y1="1979.07" x2="3224.06" y2="1979.07" style="stroke:#6E8E84;stroke-width:8.64"/>
	<line x1="3224.06" y1="2001.10" x2="3224.06" y2="1957.04" stroke-linecap="round" style="stroke:#6E8E84;stroke-width:8.64"/>
	<line x1="1788.56" y1="2001.10" x2="1788.56" y2="1957.04" stroke-linecap="round" style="stroke:#6E8E84;stroke-width:8.64"/>
	<polygon points="1736.21,885.46 1767.40,854.27 1798.58,885.46 1767.40,916.64" style="fill:#FFFFFF;stroke:#000000;stroke-width:7.20"/>
	<text x="1767.40" y="843.51" style="font-family:'Helvetica';font-size:79.94px;fill:#000000" text-anchor="middle">-0.03 (0.18)</text>
	<polygon points="2475.12,1979.07 2506.31,1947.89 2537.49,1979.07 2506.31,2010.26" style="fill:#FFFFFF;stroke:#000000;stroke-width:7.20"/>
	<text x="2506.31" y="1937.12" style="font-family:'Helvetica';font-size:79.94px;fill:#000000" text-anchor="middle">0.35 (0.19)</text>
	<line x1="774.55" y1="2589.18" x2="774.55" y2="275.35" style="stroke:#000000;stroke-width:5.76"/>
	<line x1="774.55" y1="885.46" x2="734.58" y2="885.46" style="stroke:#000000;stroke-width:5.76"/>
	<text x="714.53" y="920.49" style="font-family:'Helvetica';font-size:99.99px;fill:#000000" text-anchor="end">Treatment 1</text>
	<line x1="774.55" y1="1979.07" x2="734.58" y2="1979.07" style="stroke:#000000;stroke-width:5.76"/>
	<text x="714.53" y="2014.10" style="font-family:'Helvetica';font-size:99.99px;fill:#000000" text-anchor="end">Treatment 2</text>
	<line x1="774.55" y1="2589.18" x2="3859.02" y2="2589.18" style="stroke:#000000;stroke-width:5.76"/>
	<line x1="837.91" y1="2589.18" x2="837.91" y2="2629.15" style="stroke:#000000;stroke-width:5.76"/>
	<text x="837.91" y="2719.13" style="font-family:'Helvetica';font-size:99.99px;fill:#000000" text-anchor="middle">-.5</text>
	<line x1="1823.83" y1="2589.18" x2="1823.83" y2="2629.15" style="stroke:#000000;stroke-width:5.76"/>
	<text x="1823.83" y="2719.13" style="font-family:'Helvetica';font-size:99.99px;fill:#000000" text-anchor="middle">0</text>
	<line x1="2809.74" y1="2589.18" x2="2809.74" y2="2629.15" style="stroke:#000000;stroke-width:5.76"/>
	<text x="2809.74" y="2719.13" style="font-family:'Helvetica';font-size:99.99px;fill:#000000" text-anchor="middle">.5</text>
	<line x1="3795.66" y1="2589.18" x2="3795.66" y2="2629.15" style="stroke:#000000;stroke-width:5.76"/>
	<text x="3795.66" y="2719.13" style="font-family:'Helvetica';font-size:99.99px;fill:#000000" text-anchor="middle">1</text>
	<text x="2316.85" y="215.98" style="font-family:'Helvetica';font-size:139.96px;fill:#1E2D53" text-anchor="middle">Peru: school grades, covariate adjusted</text>
</svg>
