<?xml version="1.0" encoding="UTF-8" standalone="no"?>
<!-- This is a Stata 14.2 generated SVG file (http://www.stata.com) -->

<svg version="1.1" width="5.50in" height="4.00in" viewBox="0 0 3960 2880" xmlns="http://www.w3.org/2000/svg">
	<desc>Stata Graph - sreg_example</desc>
	<rect x="0.00" y="0.00" width="3959.88" height="2880.00" style="fill:#FFFFFF;stroke:#FFFFFF;stroke-width:5.76"/>
	<rect x="774.55" y="275.35" width="3084.47" height="2213.83" style="fill:#FFFFFF;stroke:#FFFFFF;stroke-width:5.76"/>
	<line x1="774.55" y1="860.46" x2="3859.02" y2="860.46" style="stroke:#E0E0E0;stroke-width:8.64"/>
	<line x1="774.55" y1="1904.08" x2="3859.02" y2="1904.08" style="stroke:#E0E0E0;stroke-width:8.64"/>
	<line x1="837.91" y1="2489.19" x2="837.91" y2="275.35" style="stroke:#E0E0E0;stroke-width:8.64"/>
	<line x1="1575.09" y1="2489.19" x2="1575.09" y2="275.35" style="stroke:#E0E0E0;stroke-width:8.64"/>
	<line x1="2312.27" y1="2489.19" x2="2312.27" y2="275.35" style="stroke:#E0E0E0;stroke-width:8.64"/>
	<line x1="3049.45" y1="2489.19" x2="3049.45" y2="275.35" style="stroke:#E0E0E0;stroke-width:8.64"/>
	<line x1="3786.63" y1="2489.19" x2="3786.63" y2="275.35" style="stroke:#E0E0E0;stroke-width:8.64"/>
	<line x1="2312.27" y1="2489.19" x2="2312.27" y2="2431.64" style="stroke:#808080;stroke-width:8.64"/>
	<line x1="2312.27" y1="2402.81" x2="2312.27" y2="2345.26" style="stroke:#808080;stroke-width:8.64"/>
	<line x1="2312.27" y1="2316.42" x2="2312.27" y2="2258.76" style="stroke:#808080;stroke-width:8.64"/>
	<line x1="2312.27" y1="2230.04" x2="2312.27" y2="2172.38" style="stroke:#808080;stroke-width:8.64"/>
	<line x1="2312.27" y1="2143.54" x2="2312.27" y2="2086.00" style="stroke:#808080;stroke-width:8.64"/>
	<line x1="2312.27" y1="2057.16" x2="2312.27" y2="1999.61" style="stroke:#808080;stroke-width:8.64"/>
	<line x1="2312.27" y1="1970.78" x2="2312.27" y2="1913.23" style="stroke:#808080;stroke-width:8.64"/>
	<line x1="2312.27" y1="1884.40" x2="2312.27" y2="1826.85" style="stroke:#808080;stroke-width:8.64"/>
	<line x1="2312.27" y1="1798.02" x2="2312.27" y2="1740.47" style="stroke:#808080;stroke-width:8.64"/>
	<line x1="2312.27" y1="1711.64" x2="2312.27" y2="1654.09" style="stroke:#808080;stroke-width:8.64"/>
	<line x1="2312.27" y1="1625.26" x2="2312.27" y2="1567.71" style="stroke:#808080;stroke-width:8.64"/>
	<line x1="2312.27" y1="1538.88" x2="2312.27" y2="1481.33" style="stroke:#808080;stroke-width:8.64"/>
	<line x1="2312.27" y1="1452.50" x2="2312.27" y2="1394.95" style="stroke:#808080;stroke-width:8.64"/>
	<line x1="2312.27" y1="1366.12" x2="2312.27" y2="1308.45" style="stroke:#808080;stroke-width:8.64"/>
	<line x1="2312.27" y1="1279.74" x2="2312.27" y2="1222.07" style="stroke:#808080;stroke-width:8.64"/>
	<line x1="2312.27" y1="1193.23" x2="2312.27" y2="1135.69" style="stroke:#808080;stroke-width:8.64"/>
	<line x1="2312.27" y1="1106.85" x2="2312.27" y2="1049.31" style="stroke:#808080;stroke-width:8.64"/>
	<line x1="2312.27" y1="1020.47" x2="2312.27" y2="962.93" style="stroke:#808080;stroke-width:8.64"/>
	<line x1="2312.27" y1="934.09" x2="2312.27" y2="876.55" style="stroke:#808080;stroke-width:8.64"/>
	<line x1="2312.27" y1="847.71" x2="2312.27" y2="790.17" style="stroke:#808080;stroke-width:8.64"/>
	<line x1="2312.27" y1="761.33" x2="2312.27" y2="703.79" style="stroke:#808080;stroke-width:8.64"/>
	<line x1="2312.27" y1="674.95" x2="2312.27" y2="617.41" style="stroke:#808080;stroke-width:8.64"/>
	<line x1="2312.27" y1="588.57" x2="2312.27" y2="531.03" style="stroke:#808080;stroke-width:8.64"/>
	<line x1="2312.27" y1="502.19" x2="2312.27" y2="444.52" style="stroke:#808080;stroke-width:8.64"/>
	<line x1="2312.27" y1="415.81" x2="2312.27" y2="358.14" style="stroke:#808080;stroke-width:8.64"/>
	<line x1="2312.27" y1="329.43" x2="2312.27" y2="275.35" style="stroke:#808080;stroke-width:8.64"/>
	<line x1="839.02" y1="860.46" x2="1960.20" y2="860.46" style="stroke:#6E8E84;stroke-width:8.64"/>
	<line x1="1960.20" y1="882.49" x2="1960.20" y2="838.43" stroke-linecap="round" style="stroke:#6E8E84;stroke-width:8.64"/>
	<line x1="839.02" y1="882.49" x2="839.02" y2="838.43" stroke-linecap="round" style="stroke:#6E8E84;stroke-width:8.64"/>
	<line x1="2559.40" y1="1904.08" x2="3795.66" y2="1904.08" style="stroke:#6E8E84;stroke-width:8.64"/>
	<line x1="3795.66" y1="1926.11" x2="3795.66" y2="1882.05" stroke-linecap="round" style="stroke:#6E8E84;stroke-width:8.64"/>
	<line x1="2559.40" y1="1926.11" x2="2559.40" y2="1882.05" stroke-linecap="round" style="stroke:#6E8E84;stroke-width:8.64"/>
	<polygon points="1368.43,860.46 1399.61,829.28 1430.80,860.46 1399.61,891.65" style="fill:#FFFFFF;stroke:#000000;stroke-width:7.20"/>
	<text x="1399.61" y="818.51" style="font-family:'Helvetica';font-size:79.94px;fill:#000000" text-anchor="middle">-0.25 (0.08)</text>
	<polygon points="3146.34,1904.08 3177.53,1872.89 3208.71,1904.08 3177.53,1935.26" style="fill:#FFFFFF;stroke:#000000;stroke-width:7.20"/>
	<text x="3177.53" y="1862.12" style="font-family:'Helvetica';font-size:79.94px;fill:#000000" text-anchor="middle">0.23 (0.09)</text>
	<line x1="774.55" y1="2489.19" x2="774.55" y2="275.35" style="stroke:#000000;stroke-width:5.76"/>
	<line x1="774.55" y1="860.46" x2="734.58" y2="860.46" style="stroke:#000000;stroke-width:5.76"/>
	<text x="714.53" y="895.49" style="font-family:'Helvetica';font-size:99.99px;fill:#000000" text-anchor="end">Treatment 1</text>
	<line x1="774.55" y1="1904.08" x2="734.58" y2="1904.08" style="stroke:#000000;stroke-width:5.76"/>
	<text x="714.53" y="1939.11" style="font-family:'Helvetica';font-size:99.99px;fill:#000000" text-anchor="end">Treatment 2</text>
	<line x1="774.55" y1="2489.19" x2="3859.02" y2="2489.19" style="stroke:#000000;stroke-width:5.76"/>
	<line x1="837.91" y1="2489.19" x2="837.91" y2="2529.16" style="stroke:#000000;stroke-width:5.76"/>
	<text x="837.91" y="2619.14" style="font-family:'Helvetica';font-size:99.99px;fill:#000000" text-anchor="middle">-.4</text>
	<line x1="1575.09" y1="2489.19" x2="1575.09" y2="2529.16" style="stroke:#000000;stroke-width:5.76"/>
	<text x="1575.09" y="2619.14" style="font-family:'Helvetica';font-size:99.99px;fill:#000000" text-anchor="middle">-.2</text>
	<line x1="2312.27" y1="2489.19" x2="2312.27" y2="2529.16" style="stroke:#000000;stroke-width:5.76"/>
	<text x="2312.27" y="2619.14" style="font-family:'Helvetica';font-size:99.99px;fill:#000000" text-anchor="middle">0</text>
	<line x1="3049.45" y1="2489.19" x2="3049.45" y2="2529.16" style="stroke:#000000;stroke-width:5.76"/>
	<text x="3049.45" y="2619.14" style="font-family:'Helvetica';font-size:99.99px;fill:#000000" text-anchor="middle">.2</text>
	<line x1="3786.63" y1="2489.19" x2="3786.63" y2="2529.16" style="stroke:#000000;stroke-width:5.76"/>
	<text x="3786.63" y="2619.14" style="font-family:'Helvetica';font-size:99.99px;fill:#000000" text-anchor="middle">.4</text>
	<text x="2316.85" y="2729.16" style="font-family:'Helvetica';font-size:99.99px;fill:#000000" text-anchor="middle">Average treatment effect</text>
	<text x="2316.85" y="215.98" style="font-family:'Helvetica';font-size:139.96px;fill:#1E2D53" text-anchor="middle">Estimated ATEs with 95% confidence intervals</text>
</svg>
